<svg width="338" height="35" viewBox="0 0 338 35" fill="none" xmlns="http://www.w3.org/2000/svg">
<path d="M0.32 29V0.999998H6.8V29H0.32ZM13.445 29V0.999998H25.565C28.0717 0.999998 30.2317 1.41333 32.045 2.24C33.8583 3.04 35.2583 4.2 36.245 5.72C37.2317 7.24 37.725 9.05333 37.725 11.16C37.725 13.24 37.2317 15.04 36.245 16.56C35.2583 18.0533 33.8583 19.2 32.045 20C30.2317 20.8 28.0717 21.2 25.565 21.2H17.045L19.925 18.36V29H13.445ZM31.245 29L24.245 18.84H31.165L38.245 29H31.245ZM19.925 19.08L17.045 16.04H25.205C27.205 16.04 28.6983 15.6133 29.685 14.76C30.6717 13.88 31.165 12.68 31.165 11.16C31.165 9.61333 30.6717 8.41333 29.685 7.56C28.6983 6.70667 27.205 6.28 25.205 6.28H17.045L19.925 3.2V19.08ZM41.5409 20.24V15.24H52.8609V20.24H41.5409ZM66.9028 29.48C64.6628 29.48 62.5161 29.1867 60.4628 28.6C58.4095 27.9867 56.7561 27.2 55.5028 26.24L57.7028 21.36C58.9028 22.2133 60.3161 22.92 61.9428 23.48C63.5961 24.0133 65.2628 24.28 66.9428 24.28C68.2228 24.28 69.2495 24.16 70.0228 23.92C70.8228 23.6533 71.4095 23.2933 71.7828 22.84C72.1561 22.3867 72.3428 21.8667 72.3428 21.28C72.3428 20.5333 72.0495 19.9467 71.4628 19.52C70.8761 19.0667 70.1028 18.7067 69.1428 18.44C68.1828 18.1467 67.1161 17.88 65.9428 17.64C64.7961 17.3733 63.6361 17.0533 62.4628 16.68C61.3161 16.3067 60.2628 15.8267 59.3028 15.24C58.3428 14.6533 57.5561 13.88 56.9428 12.92C56.3561 11.96 56.0628 10.7333 56.0628 9.24C56.0628 7.64 56.4895 6.18667 57.3428 4.88C58.2228 3.54666 59.5295 2.49333 61.2628 1.72C63.0228 0.919999 65.2228 0.52 67.8628 0.52C69.6228 0.52 71.3561 0.733332 73.0628 1.16C74.7695 1.56 76.2761 2.17333 77.5828 3L75.5828 7.92C74.2761 7.17333 72.9695 6.62667 71.6628 6.28C70.3561 5.90667 69.0761 5.72 67.8228 5.72C66.5695 5.72 65.5428 5.86667 64.7428 6.16C63.9428 6.45333 63.3695 6.84 63.0228 7.32C62.6761 7.77333 62.5028 8.30667 62.5028 8.92C62.5028 9.64 62.7961 10.2267 63.3828 10.68C63.9695 11.1067 64.7428 11.4533 65.7028 11.72C66.6628 11.9867 67.7161 12.2533 68.8628 12.52C70.0361 12.7867 71.1961 13.0933 72.3428 13.44C73.5161 13.7867 74.5828 14.2533 75.5428 14.84C76.5028 15.4267 77.2761 16.2 77.8628 17.16C78.4761 18.12 78.7828 19.3333 78.7828 20.8C78.7828 22.3733 78.3428 23.8133 77.4628 25.12C76.5828 26.4267 75.2628 27.48 73.5028 28.28C71.7695 29.08 69.5695 29.48 66.9028 29.48ZM102.411 0.999998H108.891V29H102.411V0.999998ZM89.6906 29H83.2106V0.999998H89.6906V29ZM102.891 17.52H89.2106V12.04H102.891V17.52ZM129.115 29.48C126.902 29.48 124.849 29.12 122.955 28.4C121.089 27.68 119.462 26.6667 118.075 25.36C116.715 24.0533 115.649 22.52 114.875 20.76C114.129 19 113.755 17.08 113.755 15C113.755 12.92 114.129 11 114.875 9.24C115.649 7.48 116.729 5.94667 118.115 4.64C119.502 3.33333 121.129 2.32 122.995 1.6C124.862 0.879999 126.889 0.52 129.075 0.52C131.289 0.52 133.315 0.879999 135.155 1.6C137.022 2.32 138.635 3.33333 139.995 4.64C141.382 5.94667 142.462 7.48 143.235 9.24C144.009 10.9733 144.395 12.8933 144.395 15C144.395 17.08 144.009 19.0133 143.235 20.8C142.462 22.56 141.382 24.0933 139.995 25.4C138.635 26.68 137.022 27.68 135.155 28.4C133.315 29.12 131.302 29.48 129.115 29.48ZM129.075 23.96C130.329 23.96 131.475 23.7467 132.515 23.32C133.582 22.8933 134.515 22.28 135.315 21.48C136.115 20.68 136.729 19.7333 137.155 18.64C137.609 17.5467 137.835 16.3333 137.835 15C137.835 13.6667 137.609 12.4533 137.155 11.36C136.729 10.2667 136.115 9.32 135.315 8.52C134.542 7.72 133.622 7.10666 132.555 6.68C131.489 6.25333 130.329 6.04 129.075 6.04C127.822 6.04 126.662 6.25333 125.595 6.68C124.555 7.10666 123.635 7.72 122.835 8.52C122.035 9.32 121.409 10.2667 120.955 11.36C120.529 12.4533 120.315 13.6667 120.315 15C120.315 16.3067 120.529 17.52 120.955 18.64C121.409 19.7333 122.022 20.68 122.795 21.48C123.595 22.28 124.529 22.8933 125.595 23.32C126.662 23.7467 127.822 23.96 129.075 23.96ZM149.265 29V0.999998H161.385C163.892 0.999998 166.052 1.41333 167.865 2.24C169.679 3.04 171.079 4.2 172.065 5.72C173.052 7.24 173.545 9.05333 173.545 11.16C173.545 13.24 173.052 15.04 172.065 16.56C171.079 18.08 169.679 19.2533 167.865 20.08C166.052 20.88 163.892 21.28 161.385 21.28H152.865L155.745 18.36V29H149.265ZM155.745 19.08L152.865 16H161.025C163.025 16 164.519 15.5733 165.505 14.72C166.492 13.8667 166.985 12.68 166.985 11.16C166.985 9.61333 166.492 8.41333 165.505 7.56C164.519 6.70667 163.025 6.28 161.025 6.28H152.865L155.745 3.2V19.08ZM196.38 29.21C194.7 29.21 193.2 28.86 191.88 28.16C190.58 27.44 189.56 26.46 188.82 25.22C188.08 23.98 187.71 22.57 187.71 20.99C187.71 19.39 188.08 17.98 188.82 16.76C189.56 15.52 190.58 14.55 191.88 13.85C193.2 13.15 194.7 12.8 196.38 12.8C197.94 12.8 199.31 13.12 200.49 13.76C201.69 14.38 202.6 15.3 203.22 16.52L200.34 18.2C199.86 17.44 199.27 16.88 198.57 16.52C197.89 16.16 197.15 15.98 196.35 15.98C195.43 15.98 194.6 16.18 193.86 16.58C193.12 16.98 192.54 17.56 192.12 18.32C191.7 19.06 191.49 19.95 191.49 20.99C191.49 22.03 191.7 22.93 192.12 23.69C192.54 24.43 193.12 25 193.86 25.4C194.6 25.8 195.43 26 196.35 26C197.15 26 197.89 25.82 198.57 25.46C199.27 25.1 199.86 24.54 200.34 23.78L203.22 25.46C202.6 26.66 201.69 27.59 200.49 28.25C199.31 28.89 197.94 29.21 196.38 29.21ZM216.242 29V25.76L216.032 25.07V19.4C216.032 18.3 215.702 17.45 215.042 16.85C214.382 16.23 213.382 15.92 212.042 15.92C211.142 15.92 210.252 16.06 209.372 16.34C208.512 16.62 207.782 17.01 207.182 17.51L205.712 14.78C206.572 14.12 207.592 13.63 208.772 13.31C209.972 12.97 211.212 12.8 212.492 12.8C214.812 12.8 216.602 13.36 217.862 14.48C219.142 15.58 219.782 17.29 219.782 19.61V29H216.242ZM211.202 29.21C210.002 29.21 208.952 29.01 208.052 28.61C207.152 28.19 206.452 27.62 205.952 26.9C205.472 26.16 205.232 25.33 205.232 24.41C205.232 23.51 205.442 22.7 205.862 21.98C206.302 21.26 207.012 20.69 207.992 20.27C208.972 19.85 210.272 19.64 211.892 19.64H216.542V22.13H212.162C210.882 22.13 210.022 22.34 209.582 22.76C209.142 23.16 208.922 23.66 208.922 24.26C208.922 24.94 209.192 25.48 209.732 25.88C210.272 26.28 211.022 26.48 211.982 26.48C212.902 26.48 213.722 26.27 214.442 25.85C215.182 25.43 215.712 24.81 216.032 23.99L216.662 26.24C216.302 27.18 215.652 27.91 214.712 28.43C213.792 28.95 212.622 29.21 211.202 29.21ZM222.082 28.97L222.262 25.82C222.402 25.84 222.532 25.86 222.652 25.88C222.772 25.9 222.882 25.91 222.982 25.91C223.602 25.91 224.082 25.72 224.422 25.34C224.762 24.96 225.012 24.45 225.172 23.81C225.352 23.15 225.472 22.42 225.532 21.62C225.612 20.8 225.672 19.98 225.712 19.16L225.982 12.98H238.942V29H235.192V15.14L236.062 16.16H228.442L229.252 15.11L229.042 19.34C228.982 20.76 228.862 22.08 228.682 23.3C228.522 24.5 228.262 25.55 227.902 26.45C227.562 27.35 227.082 28.05 226.462 28.55C225.862 29.05 225.092 29.3 224.152 29.3C223.852 29.3 223.522 29.27 223.162 29.21C222.822 29.15 222.462 29.07 222.082 28.97ZM254.163 29.3C254.143 29.3 254.053 29.3 253.893 29.3C253.753 29.3 253.613 29.3 253.473 29.3C253.353 29.3 253.273 29.3 253.233 29.3C249.853 29.26 247.233 28.53 245.373 27.11C243.513 25.67 242.583 23.62 242.583 20.96C242.583 18.32 243.513 16.3 245.373 14.9C247.233 13.5 249.883 12.78 253.323 12.74C253.363 12.74 253.443 12.74 253.563 12.74C253.703 12.74 253.833 12.74 253.953 12.74C254.093 12.74 254.173 12.74 254.193 12.74C257.653 12.74 260.343 13.45 262.263 14.87C264.203 16.27 265.173 18.3 265.173 20.96C265.173 23.64 264.203 25.7 262.263 27.14C260.343 28.58 257.643 29.3 254.163 29.3ZM254.043 26.18C255.743 26.18 257.143 25.99 258.243 25.61C259.343 25.21 260.163 24.63 260.703 23.87C261.243 23.09 261.513 22.12 261.513 20.96C261.513 19.82 261.243 18.88 260.703 18.14C260.163 17.38 259.343 16.82 258.243 16.46C257.143 16.08 255.743 15.89 254.043 15.89C254.003 15.89 253.903 15.89 253.743 15.89C253.603 15.89 253.513 15.89 253.473 15.89C251.813 15.89 250.453 16.09 249.393 16.49C248.333 16.87 247.543 17.43 247.023 18.17C246.523 18.91 246.273 19.84 246.273 20.96C246.273 22.1 246.523 23.05 247.023 23.81C247.543 24.57 248.333 25.15 249.393 25.55C250.473 25.95 251.833 26.16 253.473 26.18C253.513 26.18 253.603 26.18 253.743 26.18C253.903 26.18 254.003 26.18 254.043 26.18ZM252.093 34.82V6.74H255.633V34.82H252.093ZM276.277 29.21C274.497 29.21 272.937 28.86 271.597 28.16C270.277 27.44 269.247 26.46 268.507 25.22C267.787 23.98 267.427 22.57 267.427 20.99C267.427 19.39 267.777 17.98 268.477 16.76C269.197 15.52 270.177 14.55 271.417 13.85C272.677 13.15 274.107 12.8 275.707 12.8C277.267 12.8 278.657 13.14 279.877 13.82C281.097 14.5 282.057 15.46 282.757 16.7C283.457 17.94 283.807 19.4 283.807 21.08C283.807 21.24 283.797 21.42 283.777 21.62C283.777 21.82 283.767 22.01 283.747 22.19H270.397V19.7H281.767L280.297 20.48C280.317 19.56 280.127 18.75 279.727 18.05C279.327 17.35 278.777 16.8 278.077 16.4C277.397 16 276.607 15.8 275.707 15.8C274.787 15.8 273.977 16 273.277 16.4C272.597 16.8 272.057 17.36 271.657 18.08C271.277 18.78 271.087 19.61 271.087 20.57V21.17C271.087 22.13 271.307 22.98 271.747 23.72C272.187 24.46 272.807 25.03 273.607 25.43C274.407 25.83 275.327 26.03 276.367 26.03C277.267 26.03 278.077 25.89 278.797 25.61C279.517 25.33 280.157 24.89 280.717 24.29L282.727 26.6C282.007 27.44 281.097 28.09 279.997 28.55C278.917 28.99 277.677 29.21 276.277 29.21ZM290.623 29V15.26L291.493 16.16H284.983V12.98H299.983V16.16H293.503L294.373 15.26V29H290.623ZM314.194 29L308.404 21.32L311.464 19.43L318.604 29H314.194ZM302.704 29V12.98H306.454V29H302.704ZM305.344 22.58V19.46H310.774V22.58H305.344ZM311.824 21.44L308.314 21.02L314.194 12.98H318.214L311.824 21.44ZM321.249 29V12.98H324.999V23.54L333.849 12.98H337.269V29H333.519V18.44L324.699 29H321.249Z" fill="black"/>
</svg>
