<svg width="174" height="30" viewBox="0 0 174 30" fill="none" xmlns="http://www.w3.org/2000/svg">
<path d="M0.32 29V0.999998H6.8V29H0.32ZM13.445 29V0.999998H25.565C28.0717 0.999998 30.2317 1.41333 32.045 2.24C33.8583 3.04 35.2583 4.2 36.245 5.72C37.2317 7.24 37.725 9.05333 37.725 11.16C37.725 13.24 37.2317 15.04 36.245 16.56C35.2583 18.0533 33.8583 19.2 32.045 20C30.2317 20.8 28.0717 21.2 25.565 21.2H17.045L19.925 18.36V29H13.445ZM31.245 29L24.245 18.84H31.165L38.245 29H31.245ZM19.925 19.08L17.045 16.04H25.205C27.205 16.04 28.6983 15.6133 29.685 14.76C30.6717 13.88 31.165 12.68 31.165 11.16C31.165 9.61333 30.6717 8.41333 29.685 7.56C28.6983 6.70667 27.205 6.28 25.205 6.28H17.045L19.925 3.2V19.08ZM41.5409 20.24V15.24H52.8609V20.24H41.5409ZM66.9028 29.48C64.6628 29.48 62.5161 29.1867 60.4628 28.6C58.4095 27.9867 56.7561 27.2 55.5028 26.24L57.7028 21.36C58.9028 22.2133 60.3161 22.92 61.9428 23.48C63.5961 24.0133 65.2628 24.28 66.9428 24.28C68.2228 24.28 69.2495 24.16 70.0228 23.92C70.8228 23.6533 71.4095 23.2933 71.7828 22.84C72.1561 22.3867 72.3428 21.8667 72.3428 21.28C72.3428 20.5333 72.0495 19.9467 71.4628 19.52C70.8761 19.0667 70.1028 18.7067 69.1428 18.44C68.1828 18.1467 67.1161 17.88 65.9428 17.64C64.7961 17.3733 63.6361 17.0533 62.4628 16.68C61.3161 16.3067 60.2628 15.8267 59.3028 15.24C58.3428 14.6533 57.5561 13.88 56.9428 12.92C56.3561 11.96 56.0628 10.7333 56.0628 9.24C56.0628 7.64 56.4895 6.18667 57.3428 4.88C58.2228 3.54666 59.5295 2.49333 61.2628 1.72C63.0228 0.919999 65.2228 0.52 67.8628 0.52C69.6228 0.52 71.3561 0.733332 73.0628 1.16C74.7695 1.56 76.2761 2.17333 77.5828 3L75.5828 7.92C74.2761 7.17333 72.9695 6.62667 71.6628 6.28C70.3561 5.90667 69.0761 5.72 67.8228 5.72C66.5695 5.72 65.5428 5.86667 64.7428 6.16C63.9428 6.45333 63.3695 6.84 63.0228 7.32C62.6761 7.77333 62.5028 8.30667 62.5028 8.92C62.5028 9.64 62.7961 10.2267 63.3828 10.68C63.9695 11.1067 64.7428 11.4533 65.7028 11.72C66.6628 11.9867 67.7161 12.2533 68.8628 12.52C70.0361 12.7867 71.1961 13.0933 72.3428 13.44C73.5161 13.7867 74.5828 14.2533 75.5428 14.84C76.5028 15.4267 77.2761 16.2 77.8628 17.16C78.4761 18.12 78.7828 19.3333 78.7828 20.8C78.7828 22.3733 78.3428 23.8133 77.4628 25.12C76.5828 26.4267 75.2628 27.48 73.5028 28.28C71.7695 29.08 69.5695 29.48 66.9028 29.48ZM102.411 0.999998H108.891V29H102.411V0.999998ZM89.6906 29H83.2106V0.999998H89.6906V29ZM102.891 17.52H89.2106V12.04H102.891V17.52ZM129.115 29.48C126.902 29.48 124.849 29.12 122.955 28.4C121.089 27.68 119.462 26.6667 118.075 25.36C116.715 24.0533 115.649 22.52 114.875 20.76C114.129 19 113.755 17.08 113.755 15C113.755 12.92 114.129 11 114.875 9.24C115.649 7.48 116.729 5.94667 118.115 4.64C119.502 3.33333 121.129 2.32 122.995 1.6C124.862 0.879999 126.889 0.52 129.075 0.52C131.289 0.52 133.315 0.879999 135.155 1.6C137.022 2.32 138.635 3.33333 139.995 4.64C141.382 5.94667 142.462 7.48 143.235 9.24C144.009 10.9733 144.395 12.8933 144.395 15C144.395 17.08 144.009 19.0133 143.235 20.8C142.462 22.56 141.382 24.0933 139.995 25.4C138.635 26.68 137.022 27.68 135.155 28.4C133.315 29.12 131.302 29.48 129.115 29.48ZM129.075 23.96C130.329 23.96 131.475 23.7467 132.515 23.32C133.582 22.8933 134.515 22.28 135.315 21.48C136.115 20.68 136.729 19.7333 137.155 18.64C137.609 17.5467 137.835 16.3333 137.835 15C137.835 13.6667 137.609 12.4533 137.155 11.36C136.729 10.2667 136.115 9.32 135.315 8.52C134.542 7.72 133.622 7.10666 132.555 6.68C131.489 6.25333 130.329 6.04 129.075 6.04C127.822 6.04 126.662 6.25333 125.595 6.68C124.555 7.10666 123.635 7.72 122.835 8.52C122.035 9.32 121.409 10.2667 120.955 11.36C120.529 12.4533 120.315 13.6667 120.315 15C120.315 16.3067 120.529 17.52 120.955 18.64C121.409 19.7333 122.022 20.68 122.795 21.48C123.595 22.28 124.529 22.8933 125.595 23.32C126.662 23.7467 127.822 23.96 129.075 23.96ZM149.265 29V0.999998H161.385C163.892 0.999998 166.052 1.41333 167.865 2.24C169.679 3.04 171.079 4.2 172.065 5.72C173.052 7.24 173.545 9.05333 173.545 11.16C173.545 13.24 173.052 15.04 172.065 16.56C171.079 18.08 169.679 19.2533 167.865 20.08C166.052 20.88 163.892 21.28 161.385 21.28H152.865L155.745 18.36V29H149.265ZM155.745 19.08L152.865 16H161.025C163.025 16 164.519 15.5733 165.505 14.72C166.492 13.8667 166.985 12.68 166.985 11.16C166.985 9.61333 166.492 8.41333 165.505 7.56C164.519 6.70667 163.025 6.28 161.025 6.28H152.865L155.745 3.2V19.08Z" fill="black"/>
</svg>
