<svg width="207" height="84" viewBox="0 0 207 84" fill="none" xmlns="http://www.w3.org/2000/svg">
<path d="M2.901 34V1.1H10.515V34H2.901ZM18.3229 34V1.1H32.5639C35.5092 1.1 38.0472 1.58566 40.1779 2.557C42.3085 3.497 43.9535 4.86 45.1129 6.646C46.2722 8.432 46.8519 10.5627 46.8519 13.038C46.8519 15.482 46.2722 17.597 45.1129 19.383C43.9535 21.1377 42.3085 22.485 40.1779 23.425C38.0472 24.365 35.5092 24.835 32.5639 24.835H22.5529L25.9369 21.498V34H18.3229ZM39.2379 34L31.0129 22.062H39.1439L47.4629 34H39.2379ZM25.9369 22.344L22.5529 18.772H32.1409C34.4909 18.772 36.2455 18.2707 37.4049 17.268C38.5642 16.234 39.1439 14.824 39.1439 13.038C39.1439 11.2207 38.5642 9.81067 37.4049 8.808C36.2455 7.80533 34.4909 7.304 32.1409 7.304H22.5529L25.9369 3.685V22.344ZM51.3356 23.707V17.832H64.6366V23.707H51.3356ZM81.1358 34.564C78.5038 34.564 75.9815 34.2193 73.5688 33.53C71.1561 32.8093 69.2135 31.885 67.7408 30.757L70.3258 25.023C71.7358 26.0257 73.3965 26.856 75.3078 27.514C77.2505 28.1407 79.2088 28.454 81.1828 28.454C82.6868 28.454 83.8931 28.313 84.8018 28.031C85.7418 27.7177 86.4311 27.2947 86.8698 26.762C87.3085 26.2293 87.5278 25.6183 87.5278 24.929C87.5278 24.0517 87.1831 23.3623 86.4938 22.861C85.8045 22.3283 84.8958 21.9053 83.7678 21.592C82.6398 21.2473 81.3865 20.934 80.0078 20.652C78.6605 20.3387 77.2975 19.9627 75.9188 19.524C74.5715 19.0853 73.3338 18.5213 72.2058 17.832C71.0778 17.1427 70.1535 16.234 69.4328 15.106C68.7435 13.978 68.3988 12.5367 68.3988 10.782C68.3988 8.902 68.9001 7.19433 69.9028 5.659C70.9368 4.09233 72.4721 2.85466 74.5088 1.946C76.5768 1.006 79.1618 0.535999 82.2638 0.535999C84.3318 0.535999 86.3685 0.786666 88.3738 1.288C90.3791 1.758 92.1495 2.47866 93.6848 3.45L91.3348 9.231C89.7995 8.35367 88.2641 7.71133 86.7288 7.304C85.1935 6.86533 83.6895 6.646 82.2168 6.646C80.7441 6.646 79.5378 6.81833 78.5978 7.163C77.6578 7.50767 76.9841 7.962 76.5768 8.526C76.1695 9.05866 75.9658 9.68533 75.9658 10.406C75.9658 11.252 76.3105 11.9413 76.9998 12.474C77.6891 12.9753 78.5978 13.3827 79.7258 13.696C80.8538 14.0093 82.0915 14.3227 83.4388 14.636C84.8175 14.9493 86.1805 15.3097 87.5278 15.717C88.9065 16.1243 90.1598 16.6727 91.2878 17.362C92.4158 18.0513 93.3245 18.96 94.0138 20.088C94.7345 21.216 95.0948 22.6417 95.0948 24.365C95.0948 26.2137 94.5778 27.9057 93.5438 29.441C92.5098 30.9763 90.9588 32.214 88.8908 33.154C86.8541 34.094 84.2691 34.564 81.1358 34.564ZM122.857 1.1H130.471V34H122.857V1.1ZM107.911 34H100.297V1.1H107.911V34ZM123.421 20.511H107.347V14.072H123.421V20.511ZM154.235 34.564C151.635 34.564 149.222 34.141 146.997 33.295C144.804 32.449 142.893 31.2583 141.263 29.723C139.665 28.1877 138.412 26.386 137.503 24.318C136.626 22.25 136.187 19.994 136.187 17.55C136.187 15.106 136.626 12.85 137.503 10.782C138.412 8.714 139.681 6.91233 141.31 5.377C142.94 3.84166 144.851 2.651 147.044 1.805C149.238 0.958999 151.619 0.535999 154.188 0.535999C156.789 0.535999 159.17 0.958999 161.332 1.805C163.526 2.651 165.421 3.84166 167.019 5.377C168.649 6.91233 169.918 8.714 170.826 10.782C171.735 12.8187 172.189 15.0747 172.189 17.55C172.189 19.994 171.735 22.2657 170.826 24.365C169.918 26.433 168.649 28.2347 167.019 29.77C165.421 31.274 163.526 32.449 161.332 33.295C159.17 34.141 156.805 34.564 154.235 34.564ZM154.188 28.078C155.661 28.078 157.008 27.8273 158.23 27.326C159.484 26.8247 160.58 26.104 161.52 25.164C162.46 24.224 163.181 23.1117 163.682 21.827C164.215 20.5423 164.481 19.1167 164.481 17.55C164.481 15.9833 164.215 14.5577 163.682 13.273C163.181 11.9883 162.46 10.876 161.52 9.936C160.612 8.996 159.531 8.27533 158.277 7.774C157.024 7.27267 155.661 7.022 154.188 7.022C152.716 7.022 151.353 7.27267 150.099 7.774C148.877 8.27533 147.796 8.996 146.856 9.936C145.916 10.876 145.18 11.9883 144.647 13.273C144.146 14.5577 143.895 15.9833 143.895 17.55C143.895 19.0853 144.146 20.511 144.647 21.827C145.18 23.1117 145.901 24.224 146.809 25.164C147.749 26.104 148.846 26.8247 150.099 27.326C151.353 27.8273 152.716 28.078 154.188 28.078ZM177.912 34V1.1H192.153C195.098 1.1 197.636 1.58566 199.767 2.557C201.897 3.497 203.542 4.86 204.702 6.646C205.861 8.432 206.441 10.5627 206.441 13.038C206.441 15.482 205.861 17.597 204.702 19.383C203.542 21.169 201.897 22.5477 199.767 23.519C197.636 24.459 195.098 24.929 192.153 24.929H182.142L185.526 21.498V34H177.912ZM185.526 22.344L182.142 18.725H191.73C194.08 18.725 195.834 18.2237 196.994 17.221C198.153 16.2183 198.733 14.824 198.733 13.038C198.733 11.2207 198.153 9.81067 196.994 8.808C195.834 7.80533 194.08 7.304 191.73 7.304H182.142L185.526 3.685V22.344ZM10.445 77.245C8.485 77.245 6.735 76.8367 5.195 76.02C3.67833 75.18 2.48833 74.0367 1.625 72.59C0.761667 71.1433 0.33 69.4983 0.33 67.655C0.33 65.7883 0.761667 64.1433 1.625 62.72C2.48833 61.2733 3.67833 60.1417 5.195 59.325C6.735 58.5083 8.485 58.1 10.445 58.1C12.265 58.1 13.8633 58.4733 15.24 59.22C16.64 59.9433 17.7017 61.0167 18.425 62.44L15.065 64.4C14.505 63.5133 13.8167 62.86 13 62.44C12.2067 62.02 11.3433 61.81 10.41 61.81C9.33667 61.81 8.36833 62.0433 7.505 62.51C6.64167 62.9767 5.965 63.6533 5.475 64.54C4.985 65.4033 4.74 66.4417 4.74 67.655C4.74 68.8683 4.985 69.9183 5.475 70.805C5.965 71.6683 6.64167 72.3333 7.505 72.8C8.36833 73.2667 9.33667 73.5 10.41 73.5C11.3433 73.5 12.2067 73.29 13 72.87C13.8167 72.45 14.505 71.7967 15.065 70.91L18.425 72.87C17.7017 74.27 16.64 75.355 15.24 76.125C13.8633 76.8717 12.265 77.245 10.445 77.245ZM33.6169 77V73.22L33.3719 72.415V65.8C33.3719 64.5167 32.9869 63.525 32.2169 62.825C31.4469 62.1017 30.2802 61.74 28.7169 61.74C27.6669 61.74 26.6286 61.9033 25.6019 62.23C24.5986 62.5567 23.7469 63.0117 23.0469 63.595L21.3319 60.41C22.3352 59.64 23.5252 59.0683 24.9019 58.695C26.3019 58.2983 27.7486 58.1 29.2419 58.1C31.9486 58.1 34.0369 58.7533 35.5069 60.06C37.0002 61.3433 37.7469 63.3383 37.7469 66.045V77H33.6169ZM27.7369 77.245C26.3369 77.245 25.1119 77.0117 24.0619 76.545C23.0119 76.055 22.1952 75.39 21.6119 74.55C21.0519 73.6867 20.7719 72.7183 20.7719 71.645C20.7719 70.595 21.0169 69.65 21.5069 68.81C22.0202 67.97 22.8486 67.305 23.9919 66.815C25.1352 66.325 26.6519 66.08 28.5419 66.08H33.9669V68.985H28.8569C27.3636 68.985 26.3602 69.23 25.8469 69.72C25.3336 70.1867 25.0769 70.77 25.0769 71.47C25.0769 72.2633 25.3919 72.8933 26.0219 73.36C26.6519 73.8267 27.5269 74.06 28.6469 74.06C29.7202 74.06 30.6769 73.815 31.5169 73.325C32.3802 72.835 32.9986 72.1117 33.3719 71.155L34.1069 73.78C33.6869 74.8767 32.9286 75.7283 31.8319 76.335C30.7586 76.9417 29.3936 77.245 27.7369 77.245ZM40.4307 76.965L40.6407 73.29C40.804 73.3133 40.9557 73.3367 41.0957 73.36C41.2357 73.3833 41.364 73.395 41.4807 73.395C42.204 73.395 42.764 73.1733 43.1607 72.73C43.5574 72.2867 43.849 71.6917 44.0357 70.945C44.2457 70.175 44.3857 69.3233 44.4557 68.39C44.549 67.4333 44.619 66.4767 44.6657 65.52L44.9807 58.31H60.1007V77H55.7257V60.83L56.7407 62.02H47.8507L48.7957 60.795L48.5507 65.73C48.4807 67.3867 48.3407 68.9267 48.1307 70.35C47.944 71.75 47.6407 72.975 47.2207 74.025C46.824 75.075 46.264 75.8917 45.5407 76.475C44.8407 77.0583 43.9424 77.35 42.8457 77.35C42.4957 77.35 42.1107 77.315 41.6907 77.245C41.294 77.175 40.874 77.0817 40.4307 76.965ZM77.8577 77.35C77.8344 77.35 77.7294 77.35 77.5427 77.35C77.3794 77.35 77.2161 77.35 77.0527 77.35C76.9127 77.35 76.8194 77.35 76.7727 77.35C72.8294 77.3033 69.7727 76.4517 67.6027 74.795C65.4327 73.115 64.3477 70.7233 64.3477 67.62C64.3477 64.54 65.4327 62.1833 67.6027 60.55C69.7727 58.9167 72.8644 58.0767 76.8777 58.03C76.9244 58.03 77.0177 58.03 77.1577 58.03C77.3211 58.03 77.4727 58.03 77.6127 58.03C77.7761 58.03 77.8694 58.03 77.8927 58.03C81.9294 58.03 85.0677 58.8583 87.3077 60.515C89.5711 62.1483 90.7027 64.5167 90.7027 67.62C90.7027 70.7467 89.5711 73.15 87.3077 74.83C85.0677 76.51 81.9177 77.35 77.8577 77.35ZM77.7177 73.71C79.7011 73.71 81.3344 73.4883 82.6177 73.045C83.9011 72.5783 84.8577 71.9017 85.4877 71.015C86.1177 70.105 86.4327 68.9733 86.4327 67.62C86.4327 66.29 86.1177 65.1933 85.4877 64.33C84.8577 63.4433 83.9011 62.79 82.6177 62.37C81.3344 61.9267 79.7011 61.705 77.7177 61.705C77.6711 61.705 77.5544 61.705 77.3677 61.705C77.2044 61.705 77.0994 61.705 77.0527 61.705C75.1161 61.705 73.5294 61.9383 72.2927 62.405C71.0561 62.8483 70.1344 63.5017 69.5277 64.365C68.9444 65.2283 68.6527 66.3133 68.6527 67.62C68.6527 68.95 68.9444 70.0583 69.5277 70.945C70.1344 71.8317 71.0561 72.5083 72.2927 72.975C73.5527 73.4417 75.1394 73.6867 77.0527 73.71C77.0994 73.71 77.2044 73.71 77.3677 73.71C77.5544 73.71 77.6711 73.71 77.7177 73.71ZM75.4427 83.79V51.03H79.5727V83.79H75.4427ZM103.658 77.245C101.581 77.245 99.7613 76.8367 98.1979 76.02C96.6579 75.18 95.4563 74.0367 94.5929 72.59C93.7529 71.1433 93.3329 69.4983 93.3329 67.655C93.3329 65.7883 93.7413 64.1433 94.5579 62.72C95.3979 61.2733 96.5413 60.1417 97.9879 59.325C99.4579 58.5083 101.126 58.1 102.993 58.1C104.813 58.1 106.435 58.4967 107.858 59.29C109.281 60.0833 110.401 61.2033 111.218 62.65C112.035 64.0967 112.443 65.8 112.443 67.76C112.443 67.9467 112.431 68.1567 112.408 68.39C112.408 68.6233 112.396 68.845 112.373 69.055H96.7979V66.15H110.063L108.348 67.06C108.371 65.9867 108.15 65.0417 107.683 64.225C107.216 63.4083 106.575 62.7667 105.758 62.3C104.965 61.8333 104.043 61.6 102.993 61.6C101.92 61.6 100.975 61.8333 100.158 62.3C99.3646 62.7667 98.7346 63.42 98.2679 64.26C97.8246 65.0767 97.6029 66.045 97.6029 67.165V67.865C97.6029 68.985 97.8596 69.9767 98.3729 70.84C98.8863 71.7033 99.6096 72.3683 100.543 72.835C101.476 73.3017 102.55 73.535 103.763 73.535C104.813 73.535 105.758 73.3717 106.598 73.045C107.438 72.7183 108.185 72.205 108.838 71.505L111.183 74.2C110.343 75.18 109.281 75.9383 107.998 76.475C106.738 76.9883 105.291 77.245 103.658 77.245ZM120.395 77V60.97L121.41 62.02H113.815V58.31H131.315V62.02H123.755L124.77 60.97V77H120.395ZM147.894 77L141.139 68.04L144.709 65.835L153.039 77H147.894ZM134.489 77V58.31H138.864V77H134.489ZM137.569 69.51V65.87H143.904V69.51H137.569ZM145.129 68.18L141.034 67.69L147.894 58.31H152.584L145.129 68.18ZM156.125 77V58.31H160.5V70.63L170.825 58.31H174.815V77H170.44V64.68L160.15 77H156.125Z" fill="black"/>
</svg>
