<svg width="149" height="26" viewBox="0 0 149 26" fill="none" xmlns="http://www.w3.org/2000/svg">
<path d="M0.822 25V1.2H6.33V25H0.822ZM11.9783 25V1.2H22.2803C24.4109 1.2 26.2469 1.55133 27.7883 2.254C29.3296 2.934 30.5196 3.92 31.3583 5.212C32.1969 6.504 32.6163 8.04533 32.6163 9.836C32.6163 11.604 32.1969 13.134 31.3583 14.426C30.5196 15.6953 29.3296 16.67 27.7883 17.35C26.2469 18.03 24.4109 18.37 22.2803 18.37H15.0383L17.4863 15.956V25H11.9783ZM27.1082 25L21.1583 16.364H27.0403L33.0583 25H27.1082ZM17.4863 16.568L15.0383 13.984H21.9743C23.6743 13.984 24.9436 13.6213 25.7823 12.896C26.6209 12.148 27.0403 11.128 27.0403 9.836C27.0403 8.52133 26.6209 7.50133 25.7823 6.776C24.9436 6.05067 23.6743 5.688 21.9743 5.688H15.0383L17.4863 3.07V16.568ZM35.8598 17.554V13.304H45.4818V17.554H35.8598ZM57.4174 25.408C55.5134 25.408 53.6887 25.1587 51.9434 24.66C50.1981 24.1387 48.7927 23.47 47.7274 22.654L49.5974 18.506C50.6174 19.2313 51.8187 19.832 53.2014 20.308C54.6067 20.7613 56.0234 20.988 57.4514 20.988C58.5394 20.988 59.4121 20.886 60.0694 20.682C60.7494 20.4553 61.2481 20.1493 61.5654 19.764C61.8827 19.3787 62.0414 18.9367 62.0414 18.438C62.0414 17.8033 61.7921 17.3047 61.2934 16.942C60.7947 16.5567 60.1374 16.2507 59.3214 16.024C58.5054 15.7747 57.5987 15.548 56.6014 15.344C55.6267 15.1173 54.6407 14.8453 53.6434 14.528C52.6687 14.2107 51.7734 13.8027 50.9574 13.304C50.1414 12.8053 49.4727 12.148 48.9514 11.332C48.4527 10.516 48.2034 9.47333 48.2034 8.204C48.2034 6.844 48.5661 5.60867 49.2914 4.498C50.0394 3.36466 51.1501 2.46933 52.6234 1.812C54.1194 1.132 55.9894 0.792 58.2334 0.792C59.7294 0.792 61.2027 0.973333 62.6534 1.336C64.1041 1.676 65.3847 2.19733 66.4954 2.9L64.7954 7.082C63.6847 6.44733 62.5741 5.98267 61.4634 5.688C60.3527 5.37067 59.2647 5.212 58.1994 5.212C57.1341 5.212 56.2614 5.33667 55.5814 5.586C54.9014 5.83533 54.4141 6.164 54.1194 6.572C53.8247 6.95733 53.6774 7.41067 53.6774 7.932C53.6774 8.544 53.9267 9.04267 54.4254 9.428C54.9241 9.79067 55.5814 10.0853 56.3974 10.312C57.2134 10.5387 58.1087 10.7653 59.0834 10.992C60.0807 11.2187 61.0667 11.4793 62.0414 11.774C63.0387 12.0687 63.9454 12.4653 64.7614 12.964C65.5774 13.4627 66.2347 14.12 66.7334 14.936C67.2547 15.752 67.5154 16.7833 67.5154 18.03C67.5154 19.3673 67.1414 20.5913 66.3934 21.702C65.6454 22.8127 64.5234 23.708 63.0274 24.388C61.5541 25.068 59.6841 25.408 57.4174 25.408ZM87.599 1.2H93.107V25H87.599V1.2ZM76.787 25H71.279V1.2H76.787V25ZM88.007 15.242H76.379V10.584H88.007V15.242ZM110.298 25.408C108.417 25.408 106.671 25.102 105.062 24.49C103.475 23.878 102.093 23.0167 100.914 21.906C99.758 20.7953 98.8513 19.492 98.194 17.996C97.5593 16.5 97.242 14.868 97.242 13.1C97.242 11.332 97.5593 9.7 98.194 8.204C98.8513 6.708 99.7693 5.40467 100.948 4.294C102.127 3.18333 103.509 2.322 105.096 1.71C106.683 1.098 108.405 0.792 110.264 0.792C112.145 0.792 113.868 1.098 115.432 1.71C117.019 2.322 118.39 3.18333 119.546 4.294C120.725 5.40467 121.643 6.708 122.3 8.204C122.957 9.67733 123.286 11.3093 123.286 13.1C123.286 14.868 122.957 16.5113 122.3 18.03C121.643 19.526 120.725 20.8293 119.546 21.94C118.39 23.028 117.019 23.878 115.432 24.49C113.868 25.102 112.157 25.408 110.298 25.408ZM110.264 20.716C111.329 20.716 112.304 20.5347 113.188 20.172C114.095 19.8093 114.888 19.288 115.568 18.608C116.248 17.928 116.769 17.1233 117.132 16.194C117.517 15.2647 117.71 14.2333 117.71 13.1C117.71 11.9667 117.517 10.9353 117.132 10.006C116.769 9.07667 116.248 8.272 115.568 7.592C114.911 6.912 114.129 6.39067 113.222 6.028C112.315 5.66533 111.329 5.484 110.264 5.484C109.199 5.484 108.213 5.66533 107.306 6.028C106.422 6.39067 105.64 6.912 104.96 7.592C104.28 8.272 103.747 9.07667 103.362 10.006C102.999 10.9353 102.818 11.9667 102.818 13.1C102.818 14.2107 102.999 15.242 103.362 16.194C103.747 17.1233 104.269 17.928 104.926 18.608C105.606 19.288 106.399 19.8093 107.306 20.172C108.213 20.5347 109.199 20.716 110.264 20.716ZM127.426 25V1.2H137.728C139.858 1.2 141.694 1.55133 143.236 2.254C144.777 2.934 145.967 3.92 146.806 5.212C147.644 6.504 148.064 8.04533 148.064 9.836C148.064 11.604 147.644 13.134 146.806 14.426C145.967 15.718 144.777 16.7153 143.236 17.418C141.694 18.098 139.858 18.438 137.728 18.438H130.486L132.934 15.956V25H127.426ZM132.934 16.568L130.486 13.95H137.422C139.122 13.95 140.391 13.5873 141.23 12.862C142.068 12.1367 142.488 11.128 142.488 9.836C142.488 8.52133 142.068 7.50133 141.23 6.776C140.391 6.05067 139.122 5.688 137.422 5.688H130.486L132.934 3.07V16.568Z" fill="white"/>
</svg>
