<svg width="26" height="23" viewBox="0 0 26 23" fill="none" xmlns="http://www.w3.org/2000/svg">
<path d="M23.9374 2.25085C22.5915 0.799395 20.7447 0 18.7369 0C17.2361 0 15.8616 0.471787 14.6516 1.40215C14.041 1.87176 13.4878 2.44631 13 3.11691C12.5124 2.44651 11.959 1.87176 11.3482 1.40215C10.1384 0.471787 8.76393 0 7.26311 0C5.25526 0 3.40829 0.799395 2.06239 2.25085C0.732559 3.68534 0 5.64507 0 7.76929C0 9.95565 0.819443 11.957 2.57874 14.0678C4.15256 15.9559 6.41451 17.8727 9.03391 20.0922C9.92833 20.8501 10.9422 21.7093 11.9949 22.6245C12.273 22.8667 12.6299 23 13 23C13.3699 23 13.727 22.8667 14.0047 22.6249C15.0574 21.7095 16.0719 20.8499 16.9667 20.0916C19.5857 17.8725 21.8476 15.9559 23.4215 14.0676C25.1808 11.957 26 9.95565 26 7.7691C26 5.64507 25.2674 3.68534 23.9374 2.25085Z" fill="white"/>
</svg>
