<svg width="19" height="20" viewBox="0 0 19 20" fill="none" xmlns="http://www.w3.org/2000/svg">
<path d="M7.91189 0.200012C3.55164 0.200012 0 3.75166 0 8.1119C0 12.4721 3.55164 16.0238 7.91189 16.0238C9.80798 16.0238 11.5493 15.3505 12.914 14.2328L17.6379 18.9568C17.7109 19.0327 17.7982 19.0933 17.8948 19.1351C17.9914 19.1768 18.0954 19.1989 18.2007 19.2C18.3059 19.201 18.4104 19.1811 18.5078 19.1413C18.6053 19.1015 18.6938 19.0427 18.7682 18.9683C18.8427 18.8938 18.9015 18.8053 18.9413 18.7078C18.9811 18.6104 19.001 18.506 19 18.4007C18.9989 18.2954 18.9768 18.1914 18.9351 18.0948C18.8933 17.9982 18.8327 17.9109 18.7567 17.838L14.0328 13.114C15.1505 11.7493 15.8238 10.008 15.8238 8.1119C15.8238 3.75166 12.2721 0.200012 7.91189 0.200012ZM7.91189 1.78239C11.417 1.78239 14.2414 4.60684 14.2414 8.1119C14.2414 11.617 11.417 14.4414 7.91189 14.4414C4.40682 14.4414 1.58238 11.617 1.58238 8.1119C1.58238 4.60684 4.40682 1.78239 7.91189 1.78239Z" fill="black"/>
</svg>
