<svg width="25" height="31" viewBox="0 0 25 31" fill="none" xmlns="http://www.w3.org/2000/svg">
<path fill-rule="evenodd" clip-rule="evenodd" d="M19.0626 8.30029C19.0626 12.9597 16.248 16.9584 12.5001 16.9584C8.74924 16.9584 5.93757 12.9597 5.93757 8.29883C5.93757 3.64091 8.35841 0.916748 12.5001 0.916748C16.6417 0.916748 19.0626 3.63946 19.0626 8.30029ZM0.982157 27.3738C1.54362 28.0417 3.96153 30.0834 12.5001 30.0834C21.0386 30.0834 23.4551 28.0417 24.018 27.3753C24.0702 27.3112 24.1088 27.2372 24.1313 27.1577C24.1539 27.0782 24.16 26.9949 24.1492 26.913C24.0209 25.6267 22.863 19.8751 12.5001 19.8751C2.13716 19.8751 0.97924 25.6267 0.849449 26.913C0.838887 26.995 0.845211 27.0784 0.868033 27.1579C0.890855 27.2374 0.929692 27.3099 0.982157 27.3738Z" fill="white"/>
</svg>
