<svg width="28" height="28" viewBox="0 0 28 28" fill="none" xmlns="http://www.w3.org/2000/svg">
<path d="M9.33333 26.8333C10.622 26.8333 11.6667 25.7886 11.6667 24.5C11.6667 23.2113 10.622 22.1667 9.33333 22.1667C8.04467 22.1667 7 23.2113 7 24.5C7 25.7886 8.04467 26.8333 9.33333 26.8333Z" stroke="white" stroke-width="1.8" stroke-linecap="round" stroke-linejoin="round"/>
<path d="M23.3333 26.8333C24.622 26.8333 25.6667 25.7886 25.6667 24.5C25.6667 23.2113 24.622 22.1667 23.3333 22.1667C22.0447 22.1667 21 23.2113 21 24.5C21 25.7886 22.0447 26.8333 23.3333 26.8333Z" stroke="white" stroke-width="1.8" stroke-linecap="round" stroke-linejoin="round"/>
<path d="M6.61508 6.99999H26.8334L24.8734 16.7883C24.7667 17.3255 24.4745 17.8079 24.0479 18.1513C23.6214 18.4947 23.0876 18.6771 22.5401 18.6667H10.2084C9.63871 18.6715 9.08693 18.4677 8.6571 18.0938C8.22728 17.7198 7.94912 17.2015 7.87508 16.6367L6.10175 3.19666C6.02821 2.63577 5.75341 2.12069 5.32848 1.74727C4.90355 1.37385 4.35744 1.16751 3.79175 1.16666H1.16675" stroke="white" stroke-width="1.8" stroke-linecap="round" stroke-linejoin="round"/>
</svg>
